# xmcd
# 
# Track frame offsets:
#     150
#     12752
#     25756
#     46237
#     63306
#     79391
#     91780
#     107396
#     128465
#     139511
#     162628
#     178347
#     219061
#     236779
# 
# Disc length: 3673
# 
# Revision: 4
# Processed by: cddbd v1.5.2PL0 Copyright (c) Steve Scherf et al.
# Submitted via: fre:ac v1.0.27
# 
DISCID=ab0e570e
DTITLE=John Mayall - Blues From Laurel Canyon (Remastered)
DYEAR=1968
DGENRE=Blues
TTITLE0=Vacation
TTITLE1=Walking On Sunset
TTITLE2=Laurel Canyon Home
TTITLE3=2401
TTITLE4=Ready To Ride
TTITLE5=Medicine Man
TTITLE6=Somebody's Acting Like A Child
TTITLE7=The Bear
TTITLE8=Miss James
TTITLE9=First Time Alone
TTITLE10=Long Gone Midnight
TTITLE11=Fly Tomorrow
TTITLE12=2401 (Single Version) (Bonus Track)
TTITLE13=Wish You Were Here (Live) (Bonus Track)
EXTD=
EXTT0=
EXTT1=
EXTT2=
EXTT3=
EXTT4=
EXTT5=
EXTT6=
EXTT7=
EXTT8=
EXTT9=
EXTT10=
EXTT11=
EXTT12=
EXTT13=
PLAYORDER=
